<svg id="_001-checklist" data-name="001-checklist" xmlns="http://www.w3.org/2000/svg" width="101.112" height="101.112" viewBox="0 0 101.112 101.112">
  <path id="Path_2" data-name="Path 2" d="M71.86,52.187a4.874,4.874,0,0,1,2.714.822L85.963,60.6a8.145,8.145,0,0,0,4.524,1.37h10.625V58.71H90.489a4.881,4.881,0,0,1-2.715-.822l-4.6-3.067V0H21.2V9.785H0v91.327H61.972V91.327h21.2V77.607c.1-.025.209-.033.311-.057l7.586-1.9a21.227,21.227,0,0,1,5.149-.635h4.893V71.757H96.22a24.529,24.529,0,0,0-5.94.731l-7.586,1.9a21.327,21.327,0,0,1-11.859-.455l-2.748-.917a24.453,24.453,0,0,0-7.745-1.256H46.11A4.9,4.9,0,0,1,51,66.865H68.942a4.88,4.88,0,0,0,.573-9.728l1.339-4.95ZM69.8,77.023a24.413,24.413,0,0,0,7.745,1.257c.792,0,1.581-.068,2.367-.145v9.93H61.972V82.731a5.882,5.882,0,0,0,1.254-2.325l1.335-4.947a21.047,21.047,0,0,1,2.491.649Zm-8.506-1.967-1.215,4.5a2.693,2.693,0,0,1-2.6,1.988h-.529a2.688,2.688,0,0,1-2.594-3.389l.846-3.134h5.135C60.659,75.019,60.976,75.043,61.294,75.056Zm-9.467-.037L51.21,77.3a5.911,5.911,0,0,0,2.8,6.693L53.5,86.038l3.164.792L57.17,84.8h.313a5.923,5.923,0,0,0,1.228-.143v13.19H3.262v-84.8h21.2V3.262H79.911V52.647l-3.528-2.352a8.141,8.141,0,0,0-4.524-1.37h-.126l6.788-25.113a5.953,5.953,0,0,0-5.744-7.5h-.529a5.961,5.961,0,0,0-5.744,4.4L61.972,37.482V9.785H27.724v3.262H58.71V48.925H55.336a8.064,8.064,0,0,0-4.844,1.631H34.248v3.262H47.066L43.8,57.08H34.248v3.262h6.3l-2.725,2.725a5.061,5.061,0,0,0,5.056,8.454c0,.08-.025.155-.025.237a3.265,3.265,0,0,0,3.262,3.262ZM64.389,63.6h-6.1l6.886-25.48,5.594,1.864ZM51.877,53.619a4.93,4.93,0,0,1,3.459-1.432H58l-1.331,4.922A8.08,8.08,0,0,0,51.2,59.467L42.71,67.959a1.829,1.829,0,0,1-3.123-1.292,1.817,1.817,0,0,1,.537-1.293Zm1.631,8.154a4.914,4.914,0,0,1,2.238-1.256L54.912,63.6H51.68ZM75.372,22.961l-2,7.389-5.594-1.864,1.872-6.927a2.7,2.7,0,0,1,2.6-1.988h.529a2.689,2.689,0,0,1,2.594,3.391ZM66.93,31.64,72.524,33.5l-.9,3.329-5.594-1.864Zm2.012,28.7a1.631,1.631,0,1,1,0,3.262H67.767l.882-3.262Zm0,0" fill="#13c95c"/>
  <path id="Path_3" data-name="Path 3" d="M74.4,80H32V96.308H74.4ZM71.14,93.047H35.262V83.262H71.14Zm0,0" transform="translate(-25.477 -63.692)" fill="#13c95c"/>
  <path id="Path_4" data-name="Path 4" d="M64,112h3.262v3.262H64Zm0,0" transform="translate(-50.953 -89.168)" fill="#13c95c"/>
  <path id="Path_5" data-name="Path 5" d="M96,112h3.262v3.262H96Zm0,0" transform="translate(-76.43 -89.168)" fill="#13c95c"/>
  <path id="Path_6" data-name="Path 6" d="M128,112h3.262v3.262H128Zm0,0" transform="translate(-101.907 -89.168)" fill="#13c95c"/>
  <path id="Path_7" data-name="Path 7" d="M160,112h3.262v3.262H160Zm0,0" transform="translate(-127.383 -89.168)" fill="#13c95c"/>
  <path id="Path_8" data-name="Path 8" d="M192,112h3.262v3.262H192Zm0,0" transform="translate(-152.86 -89.168)" fill="#13c95c"/>
  <path id="Path_9" data-name="Path 9" d="M51.57,217.785H48.308v6.523H35.262V211.262h9.785V208H32v19.57H51.57Zm0,0" transform="translate(-25.477 -165.598)" fill="#13c95c"/>
  <path id="Path_10" data-name="Path 10" d="M77.914,178.344,62.758,193.5,60.65,191.39,58.344,193.7l4.415,4.415L80.22,180.65Zm0,0" transform="translate(-46.45 -141.987)" fill="#13c95c"/>
  <path id="Path_11" data-name="Path 11" d="M48.308,360.308H35.262V347.262h9.785V344H32v19.57H51.57v-9.785H48.308Zm0,0" transform="translate(-25.477 -273.874)" fill="#13c95c"/>
  <path id="Path_12" data-name="Path 12" d="M60.65,327.39,58.344,329.7l4.415,4.415L80.22,316.65l-2.306-2.306L62.758,329.5Zm0,0" transform="translate(-46.45 -250.263)" fill="#13c95c"/>
  <path id="Path_13" data-name="Path 13" d="M256,440h3.262v3.262H256Zm0,0" transform="translate(-203.813 -350.304)" fill="#13c95c"/>
  <path id="Path_14" data-name="Path 14" d="M152,440h17.939v3.262H152Zm0,0" transform="translate(-121.014 -350.304)" fill="#13c95c"/>
  <path id="Path_15" data-name="Path 15" d="M168,216h21.2v3.262H168Zm0,0" transform="translate(-133.752 -171.967)" fill="#13c95c"/>
</svg>
