<svg xmlns="http://www.w3.org/2000/svg" width="101" height="101" viewBox="0 0 101 101">
  <g id="_003-mountain" data-name="003-mountain" transform="translate(0)">
    <g id="Group_68" data-name="Group 68" transform="translate(0 0)">
      <path id="Path_27" data-name="Path 27" d="M101,173.714a1.475,1.475,0,0,0-.153-.661L89.772,150.91a1.48,1.48,0,0,0-2.647,1.323l10,20h-21.4l-14.8-29.606.769-1.539.354.245a3.014,3.014,0,0,0,3.744-.268l2.074-1.926a.031.031,0,0,1,.029-.009.03.03,0,0,1,.026.016l1.246,1.788a3,3,0,0,0,4.915,0l1.246-1.788a.031.031,0,0,1,.026-.016.032.032,0,0,1,.029.01l2.074,1.926a3.014,3.014,0,0,0,3.744.268l.355-.246,2.482,4.963a1.48,1.48,0,0,0,2.647-1.323L74.728,120.822a3.471,3.471,0,0,0-6.21,0l-.736,1.472a16.228,16.228,0,0,0-18.033-2.012L41.607,104a3.849,3.849,0,0,0-3.462-2.14h0A3.85,3.85,0,0,0,34.683,104L18.754,135.857A1.48,1.48,0,0,0,21.4,137.18l3.516-7.031.908.628a3.493,3.493,0,0,0,4.339-.31l2.726-2.532a.513.513,0,0,1,.77.083l1.638,2.349a3.472,3.472,0,0,0,5.7,0l1.638-2.35a.513.513,0,0,1,.77-.083l2.726,2.531a3.493,3.493,0,0,0,4.339.311l.908-.628,21.043,42.086H3.873L18.3,143.386a1.48,1.48,0,0,0-2.647-1.323L.156,173.052a1.473,1.473,0,0,0-.153.662H0v7.572a1.479,1.479,0,0,0,1.479,1.479H99.52A1.479,1.479,0,0,0,101,181.286v-7.572h0ZM71.623,121.861a.492.492,0,0,1,.458.284l8.136,16.272-.7.486a.036.036,0,0,1-.046,0l-2.074-1.926a3,3,0,0,0-4.5.482l-1.246,1.788a.037.037,0,0,1-.06,0l-1.246-1.788a3,3,0,0,0-4.5-.483L63.776,138.9a.037.037,0,0,1-.046,0l-.7-.486,8.136-16.273a.493.493,0,0,1,.458-.283Zm-14.347-.471a13.3,13.3,0,0,1,9.133,3.65l-7.14,14.28-8.2-16.392A13.2,13.2,0,0,1,57.275,121.39Zm-8.493,6.954a.516.516,0,0,1-.641-.046l-2.726-2.532a3.472,3.472,0,0,0-5.211.559l-1.638,2.35a.513.513,0,0,1-.842,0l-1.638-2.35a3.472,3.472,0,0,0-5.211-.559L28.15,128.3a.516.516,0,0,1-.641.046l-1.255-.869L37.33,105.322a.912.912,0,0,1,1.631,0l11.077,22.154ZM2.959,179.807v-4.613H98.041v4.613Z" transform="translate(0 -81.766)" fill="#13c95c"/>
      <path id="Path_28" data-name="Path 28" d="M383.053,77.916H396.2a6.263,6.263,0,0,0,1.222-12.4,8.654,8.654,0,0,0-15.6,0,6.263,6.263,0,0,0,1.222,12.4Zm-.132-9.561a1.48,1.48,0,0,0,1.337-.986,5.695,5.695,0,0,1,10.741,0,1.479,1.479,0,0,0,1.337.986,3.3,3.3,0,0,1-.132,6.6H383.053a3.3,3.3,0,0,1-.132-6.6Z" transform="translate(-302.463 -48.653)" fill="#13c95c"/>
      <path id="Path_29" data-name="Path 29" d="M213.345,17.307H226.5a6.263,6.263,0,0,0,1.222-12.4,8.654,8.654,0,0,0-15.6,0,6.263,6.263,0,0,0,1.222,12.4Zm-.132-9.561a1.48,1.48,0,0,0,1.337-.986,5.695,5.695,0,0,1,10.741,0,1.48,1.48,0,0,0,1.337.986,3.3,3.3,0,0,1-.132,6.6H213.345a3.3,3.3,0,0,1-.132-6.6Z" transform="translate(-166.233 0)" fill="#13c95c"/>
      <path id="Path_30" data-name="Path 30" d="M6.262,49.632H19.414a6.263,6.263,0,0,0,1.222-12.4,8.654,8.654,0,0,0-15.6,0,6.263,6.263,0,0,0,1.222,12.4ZM6.13,40.07a1.48,1.48,0,0,0,1.337-.986,5.695,5.695,0,0,1,10.741,0,1.48,1.48,0,0,0,1.337.986,3.3,3.3,0,0,1-.132,6.6H6.262a3.3,3.3,0,0,1-.132-6.6Z" transform="translate(0 -25.948)" fill="#13c95c"/>
    </g>
  </g>
</svg>
