<svg xmlns="http://www.w3.org/2000/svg" width="126.25" height="101" viewBox="0 0 126.25 101">
  <g id="_004-agenda" data-name="004-agenda" transform="translate(-2 -8)">
    <path id="Path_31" data-name="Path 31" d="M50,30H62.625v4.208H50Z" transform="translate(53 24.292)" fill="#13c95c"/>
    <path id="Path_32" data-name="Path 32" d="M50,34H62.625v4.208H50Z" transform="translate(53 28.708)" fill="#13c95c"/>
    <path id="Path_33" data-name="Path 33" d="M50,38H62.625v4.208H50Z" transform="translate(53 33.125)" fill="#13c95c"/>
    <path id="Path_34" data-name="Path 34" d="M121.937,24.833H84.062V10.1A2.1,2.1,0,0,0,80.79,8.354l-5.145,3.434L70.5,8.358A2.1,2.1,0,0,0,67.229,10.1V24.833H8.312A6.312,6.312,0,0,0,2,31.146v71.542A6.312,6.312,0,0,0,8.312,109H121.937a6.313,6.313,0,0,0,6.312-6.312V31.146a6.312,6.312,0,0,0-6.312-6.312Zm-14.729,7.184,13.858,13.858H109.312a2.1,2.1,0,0,1-2.1-2.1ZM71.437,14.035l3.041,2.028a2.1,2.1,0,0,0,2.336,0l3.041-2.028v10.8H71.437Zm-8.417,90.757H8.312a2.1,2.1,0,0,1-2.1-2.1V31.146a2.1,2.1,0,0,1,2.1-2.1H63.021V33.25H58.812a2.1,2.1,0,0,0-2.1,2.1v8.417a2.1,2.1,0,0,0,2.1,2.1h4.208v4.208H58.812a2.1,2.1,0,0,0-2.1,2.1V60.6a2.1,2.1,0,0,0,2.1,2.1h4.208v8.417H58.812a2.1,2.1,0,0,0-2.1,2.1v8.417a2.1,2.1,0,0,0,2.1,2.1h4.208v4.208H58.812a2.1,2.1,0,0,0-2.1,2.1v8.417a2.1,2.1,0,0,0,2.1,2.1h4.208Zm6.312-67.333v4.208H60.917V37.458Zm0,16.833V58.5H60.917V54.292Zm0,21.042v4.208H60.917V75.333Zm0,16.833v4.208H60.917V92.167Zm54.708,10.521a2.1,2.1,0,0,1-2.1,2.1H67.229v-4.208h4.208a2.1,2.1,0,0,0,2.1-2.1V90.063a2.1,2.1,0,0,0-2.1-2.1H67.229V83.75h4.208a2.1,2.1,0,0,0,2.1-2.1V73.229a2.1,2.1,0,0,0-2.1-2.1H67.229V62.708h4.208a2.1,2.1,0,0,0,2.1-2.1V52.188a2.1,2.1,0,0,0-2.1-2.1H67.229V45.875h4.208a2.1,2.1,0,0,0,2.1-2.1V35.354a2.1,2.1,0,0,0-2.1-2.1H67.229V29.042H103V43.771a6.313,6.313,0,0,0,6.312,6.312h14.729Zm0-59.788L110.183,29.042h11.754a2.1,2.1,0,0,1,2.1,2.1Z" transform="translate(0 0)" fill="#13c95c"/>
    <path id="Path_35" data-name="Path 35" d="M50.307,21.443a2.1,2.1,0,0,0-4,0L42.1,34.068a3.736,3.736,0,0,0-.1.665v50.5a2.1,2.1,0,0,0,2.1,2.1h8.417a2.1,2.1,0,0,0,2.1-2.1v-50.5a3.736,3.736,0,0,0-.109-.665Zm-1.995,7.318,1.29,3.867h-2.58Zm2.1,54.367H46.208V78.921h4.208Zm0-8.417H46.208V36.837h4.208Z" transform="translate(44.167 13.246)" fill="#13c95c"/>
    <path id="Path_36" data-name="Path 36" d="M45.979,22H8.1A2.1,2.1,0,0,0,6,24.1V74.6a2.1,2.1,0,0,0,2.1,2.1H45.979a2.1,2.1,0,0,0,2.1-2.1V24.1A2.1,2.1,0,0,0,45.979,22ZM18.625,72.5H10.208V64.083h8.417Zm0-12.625H10.208V51.458h8.417Zm0-12.625H10.208V38.833h8.417Zm0-12.625H10.208V26.208h8.417ZM31.25,72.5H22.833V64.083H31.25Zm0-12.625H22.833V51.458H31.25Zm0-12.625H22.833V38.833H31.25Zm0-12.625H22.833V26.208H31.25ZM43.875,72.5H35.458V64.083h8.417Zm0-12.625H35.458V51.458h8.417Zm0-12.625H35.458V38.833h8.417Zm0-12.625H35.458V26.208h8.417Z" transform="translate(4.417 15.458)" fill="#13c95c"/>
    <path id="Path_37" data-name="Path 37" d="M6,50h4.208v4.208H6Z" transform="translate(4.417 46.375)" fill="#13c95c"/>
    <path id="Path_38" data-name="Path 38" d="M10,50h4.208v4.208H10Z" transform="translate(8.833 46.375)" fill="#13c95c"/>
    <path id="Path_39" data-name="Path 39" d="M14,50h4.208v4.208H14Z" transform="translate(13.25 46.375)" fill="#13c95c"/>
  </g>
</svg>
