<svg xmlns="http://www.w3.org/2000/svg" width="89.082" height="101.112" viewBox="0 0 89.082 101.112">
  <g id="_005-save-money" data-name="005-save-money" transform="translate(-0.36)">
    <path id="Path_40" data-name="Path 40" d="M193.259,171.707a1.579,1.579,0,0,0-.569-.019,3.771,3.771,0,0,1-3.335-3.739,1.659,1.659,0,0,0-3.317,0,7.1,7.1,0,0,0,5.217,6.832v1.659a1.659,1.659,0,0,0,3.317,0v-1.558a7.082,7.082,0,0,0-1.451-14.014,3.766,3.766,0,1,1,3.766-3.766,1.659,1.659,0,0,0,3.317,0,7.1,7.1,0,0,0-5.632-6.933v-1.51a1.659,1.659,0,0,0-3.317,0v1.611a7.082,7.082,0,0,0,1.866,13.914,3.763,3.763,0,0,1,.138,7.524Zm0,0" transform="translate(-147.184 -116.524)" fill="#13c95c"/>
    <path id="Path_41" data-name="Path 41" d="M104.2,130.543a24.05,24.05,0,1,0,24.05-24.05A24.05,24.05,0,0,0,104.2,130.543Zm24.05-20.733a20.733,20.733,0,1,1-20.733,20.733A20.733,20.733,0,0,1,128.246,109.809Zm0,0" transform="translate(-82.308 -84.415)" fill="#13c95c"/>
    <path id="Path_42" data-name="Path 42" d="M78.164,332.964,65.172,339.1a10.582,10.582,0,0,0-9.022-5.567l-11.994-.33a12.667,12.667,0,0,1-5.451-1.408l-1.22-.632a21.526,21.526,0,0,0-19.939.021l.076-2.765a1.659,1.659,0,0,0-1.612-1.7l-13.152-.362a1.658,1.658,0,0,0-1.7,1.612L.361,356.83a1.659,1.659,0,0,0,1.612,1.7l13.152.362h.045a1.658,1.658,0,0,0,1.659-1.613l.038-1.381,3.417-1.829a5.861,5.861,0,0,1,4.374-.479l20.4,5.726c.036.01.071.019.108.027a21.84,21.84,0,0,0,4.484.462,22.128,22.128,0,0,0,9.244-2.017,1.537,1.537,0,0,0,.206-.113l29.582-19.135a1.659,1.659,0,0,0,.543-2.209A8.378,8.378,0,0,0,78.164,332.964Zm-74.441,22.3.7-25.545,9.835.271-.7,25.546Zm53.68-.434a18.8,18.8,0,0,1-11.5,1.284L25.555,350.4a9.171,9.171,0,0,0-6.837.747l-1.746.935.467-16.985a18.231,18.231,0,0,1,18.521-.988l1.22.632a16.019,16.019,0,0,0,6.885,1.778l11.994.33a7.275,7.275,0,0,1,6.914,5.8l-17.866-.493a1.659,1.659,0,1,0-.092,3.316l19.716.543h.046a1.659,1.659,0,0,0,1.657-1.613,10.526,10.526,0,0,0-.16-2.152l13.326-6.3.039-.019a5.068,5.068,0,0,1,5.73.8Zm0,0" transform="translate(0 -258.697)" fill="#13c95c"/>
    <path id="Path_43" data-name="Path 43" d="M215.52,17.415V1.659a1.659,1.659,0,0,0-3.317,0V17.415a1.659,1.659,0,0,0,3.317,0Zm0,0" transform="translate(-167.924 0)" fill="#13c95c"/>
    <path id="Path_44" data-name="Path 44" d="M275.52,49.122V41.659a1.659,1.659,0,0,0-3.317,0v7.463a1.659,1.659,0,0,0,3.317,0Zm0,0" transform="translate(-215.485 -31.707)" fill="#13c95c"/>
    <path id="Path_45" data-name="Path 45" d="M155.52,49.122V41.659a1.659,1.659,0,1,0-3.317,0v7.463a1.659,1.659,0,1,0,3.317,0Zm0,0" transform="translate(-120.363 -31.707)" fill="#13c95c"/>
  </g>
</svg>
