<svg xmlns="http://www.w3.org/2000/svg" width="144.483" height="101" viewBox="0 0 144.483 101">
  <g id="_006-money" data-name="006-money" transform="translate(0 -75.6)">
    <g id="Group_71" data-name="Group 71" transform="translate(0 75.6)">
      <g id="Group_70" data-name="Group 70">
        <path id="Path_46" data-name="Path 46" d="M144.08,130.586c-.748-3.537-4.573-6.384-11.5-8.484a81.06,81.06,0,0,0-21.166-2.962l-.776-32.727c-1.064-3.221-4.889-5.838-11.36-7.794A85.406,85.406,0,0,0,75.491,75.6c-8.858,0-17.226,1.064-23.553,3.02-5.205,1.61-11.446,4.6-11.446,9.749a5.3,5.3,0,0,0,.086.949l.316,13.114a34.431,34.431,0,1,0,15.213,60.537A85.875,85.875,0,0,0,74.6,164.982c1.467,7.966,18.751,11.618,34.855,11.618a83.546,83.546,0,0,0,23.582-3.048c5.263-1.61,11.446-4.63,11.446-9.778ZM53.548,84.141a77.9,77.9,0,0,1,21.885-2.79c8.2,0,16.277,1.007,22.144,2.79,6.269,1.9,7.621,3.854,7.621,4.256s-1.352,2.358-7.621,4.256a81.335,81.335,0,0,1-22.115,2.79,78.961,78.961,0,0,1-21.2-2.588c-6.183-1.783-7.937-3.767-8.081-4.4,0-.029-.029-.058-.058-.086C46.129,87.765,48.056,85.838,53.548,84.141Zm52.11,11.36v7.19a2.914,2.914,0,0,0-.46,1.61c0,.374-1.352,2.358-7.592,4.256-5.838,1.783-13.919,2.79-22.115,2.79a82.277,82.277,0,0,1-19.585-2.157c-.086-.029-.173-.029-.23-.058a33.021,33.021,0,0,0-8.973-5.09l-.2-8.11a31.862,31.862,0,0,0,6.212,2.387,85,85,0,0,0,22.806,2.79,85.044,85.044,0,0,0,23.755-3.02A28.333,28.333,0,0,0,105.659,95.5ZM53.692,157.447a28.664,28.664,0,1,1-19.3-49.867,29.291,29.291,0,0,1,8.484,1.265A28,28,0,0,1,53.06,114.51a28.626,28.626,0,0,1,9.433,15.961,30.075,30.075,0,0,1,.575,5.78A28.449,28.449,0,0,1,53.692,157.447Zm7.3.633a34.725,34.725,0,0,0,5.522-9.462c2.473.2,5.062.345,7.736.374a2.957,2.957,0,0,0,0,1.007l.115,9.26A87.5,87.5,0,0,1,61,158.079Zm7.679-25.25c1.7.115,3.451.173,5.263.2a4.6,4.6,0,0,0,.144.6l.115,9.577c-2.071-.029-4.112-.115-6.039-.259a35.351,35.351,0,0,0,.661-6.729C68.819,135.1,68.762,133.98,68.675,132.829Zm7.017-5.522h-.23c-2.79,0-5.435-.115-7.909-.316a34.635,34.635,0,0,0-5.119-10.7,103.926,103.926,0,0,0,13.028.834,85.044,85.044,0,0,0,23.755-3.02,30.442,30.442,0,0,0,6.413-2.646v7.679A81.467,81.467,0,0,0,86.3,121.786Q78.712,123.943,75.692,127.308Zm3.969,4.285c.489-.892,2.646-2.646,8.254-4.2a79.65,79.65,0,0,1,20.677-2.444h.23c8.225,0,16.277.949,22.115,2.732,6.039,1.841,7.506,3.681,7.592,4.17v.029c-.029.431-1.438,2.416-7.822,4.314a80.107,80.107,0,0,1-21.885,2.7,82.178,82.178,0,0,1-20.591-2.387c-5.407-1.467-7.736-3.163-8.426-4.141A2.465,2.465,0,0,0,79.661,131.593Zm59.07,32.152c0,.4-1.265,2.387-7.391,4.285a77.28,77.28,0,0,1-21.914,2.818A78.4,78.4,0,0,1,87.6,168.116c-5.493-1.7-7.333-3.595-7.333-4.228v-.058l-.029-1.754-.086-6.5a35.532,35.532,0,0,0,7.161,2.588,88.021,88.021,0,0,0,21.511,2.444,84.4,84.4,0,0,0,23.668-3.02,25.74,25.74,0,0,0,6.241-2.617Zm-.374-15.932c0,.4-1.323,2.358-7.506,4.256a79.422,79.422,0,0,1-22.058,2.761c-15.645,0-26.285-3.48-28.759-6.241L79.92,139.5c6.787,3.537,18.2,5.148,28.9,5.148a85.861,85.861,0,0,0,23.467-2.933,31.452,31.452,0,0,0,6.471-2.617v7.19h0C138.731,146.72,138.357,147.238,138.357,147.813Z" transform="translate(0 -75.6)" fill="#13c95c"/>
      </g>
    </g>
    <g id="Group_73" data-name="Group 73" transform="translate(15.443 117.242)">
      <g id="Group_72" data-name="Group 72" transform="translate(0 0)">
        <path id="Path_47" data-name="Path 47" d="M72.681,220.4a18.981,18.981,0,1,0,18.981,18.981A18.981,18.981,0,0,0,72.681,220.4Zm0,32.238A13.229,13.229,0,1,1,85.91,239.409,13.231,13.231,0,0,1,72.681,252.638Z" transform="translate(-53.7 -220.4)" fill="#13c95c"/>
      </g>
    </g>
  </g>
</svg>
