<svg xmlns="http://www.w3.org/2000/svg" xmlns:xlink="http://www.w3.org/1999/xlink" width="108" height="108" viewBox="0 0 108 108"><defs><style>.a{fill:#fff;stroke:#707070;}.b{clip-path:url(#a);}.c{fill:#13c95c;}</style><clipPath id="a"><rect class="a" width="108" height="108" transform="translate(608 820)"/></clipPath></defs><g class="b" transform="translate(-608 -820)"><g transform="translate(608 820)"><path class="c" d="M107.073.926a3.17,3.17,0,0,0-2.685-.9L82.239,3.194a3.166,3.166,0,0,0-1.789,5.37l7.255,7.255-7.213,7.213a42.686,42.686,0,0,0-26.7-9.956A41.18,41.18,0,0,0,12.656,54.21a38.537,38.537,0,0,0,1.339,9.722,8.578,8.578,0,0,1,4.371.116l10.265,2.93A30.492,30.492,0,0,1,25.312,54.21,28.508,28.508,0,0,1,53.789,25.734c11.485,0,28.476,9.05,28.476,28.476A28.508,28.508,0,0,1,53.789,82.686a28.091,28.091,0,0,1-12.579-2.8l2.734,9.725a9.35,9.35,0,0,1,.014,4.643,43.492,43.492,0,0,0,9.83,1.089A41.18,41.18,0,0,0,94.921,54.21a39.659,39.659,0,0,0-9.893-26.765l7.151-7.151,7.255,7.255a3.166,3.166,0,0,0,5.37-1.789l3.164-22.148a3.171,3.171,0,0,0-.9-2.685Z"/><path class="c" d="M49.722,62.751a9.382,9.382,0,0,0,4.067.951A9.492,9.492,0,1,0,44.3,54.21a9.382,9.382,0,0,0,.951,4.067L29.67,73.854l-12.982-3.7a3.184,3.184,0,0,0-3.5,1.288L.531,90.423a3.162,3.162,0,0,0,1.647,4.762l8.062,2.642,2.568,7.978a3.165,3.165,0,0,0,4.768,1.662L36.56,94.811a3.165,3.165,0,0,0,1.292-3.488L34.187,78.286Z"/><path class="c" d="M53.789,70.03a18.375,18.375,0,0,1-2.245-.153l-5.258,5.258a22.847,22.847,0,0,0,7.5,1.223A22.175,22.175,0,0,0,75.937,54.21c0-16.571-15.209-22.148-22.148-22.148A22.175,22.175,0,0,0,31.64,54.21a23.516,23.516,0,0,0,1.518,7.207l5.129-5.129a17.813,17.813,0,0,1-.319-2.078,15.839,15.839,0,0,1,15.82-15.82c3.139,0,15.82,2.815,15.82,15.82A15.839,15.839,0,0,1,53.789,70.03Z"/></g></g></svg>