<svg xmlns="http://www.w3.org/2000/svg" xmlns:xlink="http://www.w3.org/1999/xlink" width="108" height="108" viewBox="0 0 108 108"><defs><style>.a{fill:#fff;stroke:#707070;}.b{clip-path:url(#a);}.c{fill:#13c95c;}</style><clipPath id="a"><rect class="a" width="108" height="108" transform="translate(1442 820)"/></clipPath></defs><g class="b" transform="translate(-1442 -820)"><g transform="translate(1442 820)"><rect class="c" width="40.815" height="6.328" transform="translate(33.593 10.973)"/><rect class="c" width="6.256" height="2.461" transform="translate(21.009 14.136)"/><rect class="c" width="6.256" height="2.461" transform="translate(80.735 14.136)"/><path class="c" d="M93.319,10.973V22.926H74.407v-8.79H33.593v8.79H14.681V10.973H0V30.589H108V10.973Z"/><path class="c" d="M0,36.917V108H108V36.917Zm23.6,59.271H13.149V89.86H23.605v6.328Zm0-13.71H13.149V76.15H23.605v6.328Zm0-13.711H13.149V62.439H23.605v6.328ZM41.416,96.188H30.962V89.86H41.416Zm0-13.71H30.962V76.15H41.416Zm0-13.711H30.962V62.439H41.416ZM59.227,96.188H48.773V89.86H59.227Zm0-13.71H48.773V76.15H59.227Zm0-13.711H48.773V62.439H59.227Zm0-13.71H48.773V48.729H59.227ZM77.038,96.188H66.584V89.86H77.038Zm0-13.71H66.584V76.15H77.038Zm0-13.711H66.584V62.439H77.038Zm0-13.71H66.584V48.729H77.038ZM94.851,82.478H84.395V76.15H94.851Zm0-13.711H84.395V62.439H94.851Zm0-13.71H84.395V48.729H94.851Z"/><rect class="c" width="6.256" height="16.598" transform="translate(21.009)"/><rect class="c" width="6.256" height="16.598" transform="translate(80.735)"/></g></g></svg>