<svg xmlns="http://www.w3.org/2000/svg" xmlns:xlink="http://www.w3.org/1999/xlink" width="108" height="108" viewBox="0 0 108 108"><defs><style>.a{fill:#fff;stroke:#707070;}.b{clip-path:url(#a);}.c{fill:#13c95c;}.d{fill:#fafafa;font-size:28px;font-family:LucidaGrande, Lucida Grande;}</style><clipPath id="a"><rect class="a" width="108" height="108" transform="translate(1183 820)"/></clipPath></defs><g class="b" transform="translate(-1183 -820)"><g transform="translate(1183 820)"><path class="c" d="M57.181,51V44.267c1.11.152,2.689.338,4.411.444q1.368.084,2.579.084c3.43,0,5.932-.506,7.609-1.532,2.072-1.268,4.01-4.02,5.925-8.414a59.572,59.572,0,0,0,2.126-5.676l1.056-3.44-3.544-.624a59.559,59.559,0,0,0-6.022-.689c-4.784-.293-8.117.18-10.188,1.448a12.625,12.625,0,0,0-3.953,4.489V19.931c1.11.152,2.689.338,4.411.444q1.368.084,2.579.084c3.43,0,5.932-.506,7.609-1.532,2.072-1.268,4.01-4.02,5.925-8.414A59.5,59.5,0,0,0,79.83,4.837L80.887,1.4,77.343.774A59.559,59.559,0,0,0,71.321.084C66.537-.209,63.2.265,61.133,1.532s-4.01,4.02-5.925,8.414c-.473,1.085-.881,2.126-1.211,3.016-.329-.889-.738-1.931-1.211-3.016C50.872,5.552,48.934,2.8,46.862,1.532S41.458-.209,36.674.084a59.577,59.577,0,0,0-6.022.689L27.108,1.4l1.057,3.44a59.593,59.593,0,0,0,2.126,5.676c1.915,4.394,3.853,7.146,5.925,8.414,1.677,1.026,4.179,1.532,7.609,1.532q1.212,0,2.579-.084c1.726-.106,3.309-.292,4.419-.445V30.372a12.648,12.648,0,0,0-3.961-4.5c-2.072-1.268-5.4-1.741-10.188-1.448a59.577,59.577,0,0,0-6.022.689l-3.544.624,1.057,3.44a59.593,59.593,0,0,0,2.126,5.676c1.915,4.394,3.853,7.146,5.925,8.414,1.677,1.026,4.179,1.532,7.609,1.532q1.212,0,2.579-.084c1.726-.106,3.309-.292,4.419-.445V51H27.112l6.542,57h40.7l6.542-57H57.181Z"/><text class="d" transform="translate(54 89)"><tspan x="-8.853" y="0">₱</tspan></text></g></g></svg>