<svg xmlns="http://www.w3.org/2000/svg" xmlns:xlink="http://www.w3.org/1999/xlink" width="108" height="108" viewBox="0 0 108 108"><defs><style>.a{fill:#fff;stroke:#707070;}.b{clip-path:url(#a);}.c{fill:#13c95c;}</style><clipPath id="a"><rect class="a" width="108" height="108" transform="translate(930 820)"/></clipPath></defs><g class="b" transform="translate(-930 -820)"><g transform="translate(930 820)"><circle class="c" cx="3.164" cy="3.164" r="3.164" transform="translate(58.018 37.979)"/><path class="c" d="M20.055,46.512l-15.4,23.1h15.4v25.52H46.627L53.408,108l49.938-20.663L94.013,65.911a40.821,40.821,0,0,0,5.149-40.383L96.79,27.9,80.8,31.086a21.857,21.857,0,0,1,2.529,10.056A22.145,22.145,0,1,1,61.181,19a21.853,21.853,0,0,1,10.056,2.529l3.185-16,2.384-2.382A41.556,41.556,0,0,0,54.465.554c-19.618,3.124-34.41,21.135-34.41,41.893v4.066Z"/><path class="c" d="M69.891,27.96a15.865,15.865,0,1,0,4.474,4.474l-4.643,4.643a9.38,9.38,0,0,1,.951,4.066,9.491,9.491,0,1,1-9.491-9.491,9.38,9.38,0,0,1,4.066.951Z"/><path class="c" d="M102.345,13.3,92.833,9.364,88.81,0,80.253,8.645,76.916,25.408l16.757-3.34Z"/></g></g></svg>