<svg xmlns="http://www.w3.org/2000/svg" xmlns:xlink="http://www.w3.org/1999/xlink" width="108" height="108" viewBox="0 0 108 108"><defs><style>.a{fill:#fff;stroke:#707070;}.b{clip-path:url(#a);}.c{fill:#13c95c;}</style><clipPath id="a"><rect class="a" width="108" height="108" transform="translate(369 820)"/></clipPath></defs><g class="b" transform="translate(-369 -820)"><g transform="translate(369 820)"><path class="c" d="M30.052,80.888H37.28v7.228H30.052Z"/><path class="c" d="M76.029,27.112h19.95L70.72,1.854V21.8A5.315,5.315,0,0,0,76.029,27.112Z"/><path class="c" d="M30.052,53.775H37.28V61H30.052Z"/><path class="c" d="M76.029,33.441A11.65,11.65,0,0,1,64.392,21.8V0H21.8A11.65,11.65,0,0,0,10.167,11.637V96.363A11.65,11.65,0,0,0,21.8,108H86.2A11.65,11.65,0,0,0,97.833,96.363V33.441ZM67.556,47.447a3.164,3.164,0,0,1,0,6.328H54a3.164,3.164,0,0,1,0-6.328Zm-40.668-30.5H43.833a3.164,3.164,0,0,1,0,6.328H26.888a3.164,3.164,0,0,1,0-6.328Zm0,13.556H54a3.164,3.164,0,0,1,0,6.328H26.888a3.164,3.164,0,0,1,0-6.328ZM43.608,91.28a3.164,3.164,0,0,1-3.164,3.164H26.888a3.164,3.164,0,0,1-3.164-3.164V77.723a3.164,3.164,0,0,1,3.164-3.164H40.444a3.164,3.164,0,0,1,3.164,3.164Zm0-27.112a3.164,3.164,0,0,1-3.164,3.164H26.888a3.164,3.164,0,0,1-3.164-3.164V50.611a3.164,3.164,0,0,1,3.164-3.164H40.444a3.164,3.164,0,0,1,3.164,3.164Zm37.5,30.276H54a3.164,3.164,0,0,1,0-6.328H81.113a3.164,3.164,0,0,1,0,6.328ZM50.836,77.724A3.164,3.164,0,0,1,54,74.559H67.556a3.164,3.164,0,0,1,0,6.328H54a3.164,3.164,0,0,1-3.164-3.164ZM81.113,67.331H54A3.164,3.164,0,0,1,54,61H81.113a3.164,3.164,0,0,1,0,6.328Z"/></g></g></svg>